<svg class="icon" viewBox="0 0 1024 1024" version="1.1" xmlns="http://www.w3.org/2000/svg" xmlns:xlink="http://www.w3.org/1999/xlink" width="200" height="200"><defs><style type="text/css"></style></defs><path d="M514.56 2.56C234.496 2.56 7.68 229.376 7.68 509.44s226.816 506.88 506.88 506.88 506.88-226.816 506.88-506.88S794.624 2.56 514.56 2.56z m0 946.176c-242.688 0-439.296-196.608-439.296-439.296S271.872 70.144 514.56 70.144 953.856 266.752 953.856 509.44 757.248 948.736 514.56 948.736z m221.952-609.536L402.176 673.792l-143.36-143.36c-13.312-13.312-34.56-13.312-47.872 0-13.312 13.312-13.312 34.56 0 47.872l167.168 167.168c13.312 13.312 34.56 13.312 47.872 0l358.4-358.4c13.312-13.312 13.312-34.56 0-47.872-13.056-13.056-34.56-13.056-47.872 0z m0 0"></path></svg>
